<mxfile host="app.diagrams.net" modified="2023-11-21T00:31:32.480Z" agent="Mozilla/5.0 (Windows NT 10.0; Win64; x64) AppleWebKit/537.36 (KHTML, like Gecko) Chrome/118.0.0.0 Whale/3.23.214.10 Safari/537.36" version="22.1.3" etag="XgBiVyPjhW1AwCzy2-UE" type="github">
  <diagram name="페이지-1" id="yjgecmYh6PU_Y6vNmz87">
    <mxGraphModel>
      <root>
        <mxCell id="0" />
        <mxCell id="1" parent="0" />
      </root>
    </mxGraphModel>
  </diagram>
</mxfile>
